# xmcd CD database file
# Copyright (C) 1993-1998 Ti Kan
#
# Track frame offsets:
#	150
#	9607
#	21990
#	34170
#	52250
#	62767
#	77870
#	88552
#	108315
#	127067
#	146707
#	167877
#	179782
#
# Disc length: 2555 seconds
#
# Revision: 1
# Processed by: cddbd v1.4b41PL1 Copyright (c) Steve Scherf et al.
# Submitted via: CDValet v3.31 - Copyright (c) 1997 Greg Leichner
#
DISCID=bf09f90d
DTITLE=Lou Rawls - love Is A Hurtin' Thing:The Silk and Soul Of L
DTITLE=ou Rawls
DYEAR=1900
DGENRE=
TTITLE0=Red Top
TTITLE1=Just Squeeze Me (But Don't Tease Me)
TTITLE2=You're The One
TTITLE3=Dead End Street  (Parts 1 and 2)
TTITLE4=Love Is A Hurtin' Thing
TTITLE5=Bring It On Home
TTITLE6=Another Saturday Night
TTITLE7=Righteous Woman (Monologue)/ I Wanna Little Girl
TTITLE8=Tobacco Road
TTITLE9=How Long, How Long Blues
TTITLE10=Your Good Thing ( Is About To End)
TTITLE11=I Wonder
TTITLE12=A Whole Lotta Woman
EXTD=
EXTT0=
EXTT1=
EXTT2=
EXTT3=
EXTT4=
EXTT5=
EXTT6=
EXTT7=
EXTT8=
EXTT9=
EXTT10=
EXTT11=
EXTT12=
PLAYORDER=
